<svg width="15" height="15" viewBox="0 0 15 15" fill="none" xmlns="http://www.w3.org/2000/svg">
<g clip-path="url(#clip0_86_69)">
<g clip-path="url(#clip1_86_69)">
<path d="M7.9375 0.750617C11.4402 0.750617 14.2812 3.59163 14.2812 7.09437C14.2812 7.45804 13.9887 7.75062 13.625 7.75062C13.2613 7.75062 12.9688 7.45804 12.9688 7.09437C12.9688 4.31624 10.7156 2.06312 7.9375 2.06312C7.57383 2.06312 7.28125 1.77054 7.28125 1.40687C7.28125 1.04319 7.57383 0.750617 7.9375 0.750617ZM8.15625 6.00062C8.38831 6.00062 8.61087 6.0928 8.77497 6.2569C8.93906 6.42099 9.03125 6.64355 9.03125 6.87562C9.03125 7.10768 8.93906 7.33024 8.77497 7.49434C8.61087 7.65843 8.38831 7.75062 8.15625 7.75062C7.92419 7.75062 7.70163 7.65843 7.53753 7.49434C7.37344 7.33024 7.28125 7.10768 7.28125 6.87562C7.28125 6.64355 7.37344 6.42099 7.53753 6.2569C7.70163 6.0928 7.92419 6.00062 8.15625 6.00062ZM7.28125 4.03187C7.28125 3.66819 7.57383 3.37562 7.9375 3.37562C9.99102 3.37562 11.6562 5.04085 11.6562 7.09437C11.6562 7.45804 11.3637 7.75062 11 7.75062C10.6363 7.75062 10.3438 7.45804 10.3438 7.09437C10.3438 5.76546 9.26641 4.68812 7.9375 4.68812C7.57383 4.68812 7.28125 4.39554 7.28125 4.03187ZM3.49414 0.788898C4.02461 0.643976 4.57969 0.914679 4.79023 1.42327L5.88398 4.04827C6.06992 4.49398 5.94141 5.01077 5.5668 5.31429L4.21875 6.41898C5.1293 8.34398 6.68789 9.90257 8.61289 10.8131L9.71484 9.46507C10.0211 9.09046 10.5352 8.96194 10.9809 9.14788L13.6059 10.2416C14.1145 10.4522 14.3852 11.0073 14.2402 11.5377L13.584 13.944C13.4555 14.4198 13.0234 14.7506 12.5312 14.7506C5.76641 14.7506 0.28125 9.26546 0.28125 2.50062C0.28125 2.00843 0.612109 1.5764 1.08789 1.44515L3.49414 0.788898Z" fill="#00B5D8"/>
</g>
</g>
<defs>
<clipPath id="clip0_86_69">
<rect width="14" height="14" fill="white" transform="translate(0.28125 0.75)"/>
</clipPath>
<clipPath id="clip1_86_69">
<path d="M0.28125 0.75H14.2812V14.75H0.28125V0.75Z" fill="white"/>
</clipPath>
</defs>
</svg>
