<svg width="19" height="15" viewBox="0 0 19 15" fill="none" xmlns="http://www.w3.org/2000/svg">
<path d="M6.2188 10.375C9.3606 10.375 11.9063 8.22031 11.9063 5.5625C11.9063 2.90469 9.3606 0.75 6.2188 0.75C3.07701 0.75 0.531305 2.90469 0.531305 5.5625C0.531305 6.61797 0.933258 7.59414 1.61412 8.38984C1.51841 8.64687 1.37623 8.87383 1.22584 9.06523C1.09459 9.23477 0.960602 9.36602 0.862164 9.45625C0.812946 9.5 0.77193 9.53555 0.744586 9.55742C0.730914 9.56836 0.719977 9.57656 0.714508 9.5793L0.709039 9.58477C0.558649 9.69688 0.493024 9.89375 0.55318 10.0715C0.613336 10.2492 0.780133 10.375 0.968805 10.375C1.5649 10.375 2.16646 10.2219 2.66685 10.0332C2.91841 9.9375 3.15357 9.83086 3.35865 9.72148C4.1981 10.1371 5.17427 10.375 6.2188 10.375ZM12.7813 5.5625C12.7813 8.6332 10.0715 10.9465 6.86138 11.2227C7.52584 13.257 9.72974 14.75 12.3438 14.75C13.3883 14.75 14.3645 14.5121 15.2067 14.0965C15.4118 14.2059 15.6442 14.3125 15.8958 14.4082C16.3961 14.5969 16.9977 14.75 17.5938 14.75C17.7825 14.75 17.952 14.627 18.0094 14.4465C18.0669 14.266 18.004 14.0691 17.8508 13.957L17.8454 13.9516C17.8399 13.9461 17.829 13.9406 17.8153 13.9297C17.7879 13.9078 17.7469 13.875 17.6977 13.8285C17.5993 13.7383 17.4653 13.607 17.334 13.4375C17.1836 13.2461 17.0415 13.0164 16.9458 12.7621C17.6266 11.9691 18.0286 10.993 18.0286 9.93477C18.0286 7.39727 15.7071 5.31641 12.7622 5.13594C12.7731 5.27539 12.7786 5.41758 12.7786 5.55977L12.7813 5.5625Z" fill="#8A3FFC"/>
</svg>
