<svg width="17" height="14" viewBox="0 0 17 14" fill="none" xmlns="http://www.w3.org/2000/svg">
<path d="M7.73125 2.30938L11.5688 6.14687C11.7938 6.37187 11.9219 6.68125 11.9219 7C11.9219 7.31875 11.7938 7.62812 11.5688 7.85312L7.73125 11.6906C7.53125 11.8906 7.2625 12 6.98125 12C6.39687 12 5.92188 11.525 5.92188 10.9406V9H1.92188C1.36875 9 0.921875 8.55313 0.921875 8V6C0.921875 5.44688 1.36875 5 1.92188 5H5.92188V3.05937C5.92188 2.475 6.39687 2 6.98125 2C7.2625 2 7.53125 2.1125 7.73125 2.30938ZM11.9219 12H13.9219C14.475 12 14.9219 11.5531 14.9219 11V3C14.9219 2.44688 14.475 2 13.9219 2H11.9219C11.3687 2 10.9219 1.55313 10.9219 1C10.9219 0.446875 11.3687 0 11.9219 0H13.9219C15.5781 0 16.9219 1.34375 16.9219 3V11C16.9219 12.6562 15.5781 14 13.9219 14H11.9219C11.3687 14 10.9219 13.5531 10.9219 13C10.9219 12.4469 11.3687 12 11.9219 12Z" fill="white"/>
</svg>
