<svg width="15" height="11" viewBox="0 0 15 11" fill="none" xmlns="http://www.w3.org/2000/svg">
<path d="M1.76562 0.5C1.04102 0.5 0.453125 1.08789 0.453125 1.8125C0.453125 2.22539 0.647266 2.61367 0.978125 2.8625L6.92812 7.325C7.23984 7.55742 7.66641 7.55742 7.97813 7.325L13.9281 2.8625C14.259 2.61367 14.4531 2.22539 14.4531 1.8125C14.4531 1.08789 13.8652 0.5 13.1406 0.5H1.76562ZM0.453125 3.5625V9.25C0.453125 10.2152 1.23789 11 2.20312 11H12.7031C13.6684 11 14.4531 10.2152 14.4531 9.25V3.5625L8.50313 8.025C7.87969 8.49258 7.02656 8.49258 6.40313 8.025L0.453125 3.5625Z" fill="#10B981"/>
</svg>
